<svg width="60" height="60" viewBox="0 0 60 60" fill="none" xmlns="http://www.w3.org/2000/svg">
<rect width="60" height="60" rx="5" fill="black"/>
<path d="M12.7727 45.7273V16.6364H19.5V18.8636H15.3182V43.5H19.5V45.7273H12.7727Z" fill="white"/>
<path d="M46.8182 16.6364V45.7273H40.0909V43.5H44.2727V18.8636H40.0909V16.6364H46.8182Z" fill="white"/>
<g clip-path="url(#clip0_39_48)">
<path d="M28.3333 31.8333C28.6912 32.3118 29.1478 32.7077 29.6721 32.9941C30.1965 33.2806 30.7763 33.4509 31.3722 33.4936C31.9682 33.5363 32.5663 33.4503 33.1261 33.2415C33.6859 33.0327 34.1943 32.7059 34.6167 32.2833L37.1167 29.7833C37.8757 28.9975 38.2956 27.945 38.2862 26.8525C38.2767 25.76 37.8385 24.715 37.0659 23.9424C36.2934 23.1699 35.2483 22.7317 34.1558 22.7222C33.0634 22.7127 32.0109 23.1327 31.225 23.8917L29.7917 25.3167" stroke="white" stroke-width="2" stroke-linecap="round" stroke-linejoin="round"/>
<path d="M31.6667 30.1667C31.3088 29.6882 30.8522 29.2923 30.3279 29.0059C29.8036 28.7194 29.2238 28.5491 28.6278 28.5064C28.0319 28.4637 27.4337 28.5497 26.8739 28.7585C26.3141 28.9673 25.8058 29.2941 25.3833 29.7167L22.8833 32.2167C22.1244 33.0025 21.7044 34.055 21.7139 35.1475C21.7234 36.24 22.1616 37.285 22.9341 38.0576C23.7066 38.8301 24.7517 39.2683 25.8442 39.2778C26.9367 39.2873 27.9892 38.8673 28.775 38.1083L30.2 36.6833" stroke="white" stroke-width="2" stroke-linecap="round" stroke-linejoin="round"/>
</g>
<defs>
<clipPath id="clip0_39_48">
<rect x="20" y="21" width="20" height="20" rx="6" fill="white"/>
</clipPath>
</defs>
</svg>
